<mxfile host="www.draw.io" modified="2020-01-14T10:42:49.522Z" agent="Mozilla/5.0 (Windows NT 10.0; Win64; x64) AppleWebKit/537.36 (KHTML, like Gecko) Chrome/79.0.3945.117 Safari/537.36" etag="uz-7JdAVqz9h_movD8FG" version="12.5.1" type="github">
  <diagram id="C5RBs43oDa-KdzZeNtuy" name="Page-1">
    <mxGraphModel dx="2249" dy="1963" grid="1" gridSize="10" guides="1" tooltips="1" connect="1" arrows="1" fold="1" page="1" pageScale="1" pageWidth="827" pageHeight="1169" math="0" shadow="0">
      <root>
        <mxCell id="WIyWlLk6GJQsqaUBKTNV-0"/>
        <mxCell id="WIyWlLk6GJQsqaUBKTNV-1" parent="WIyWlLk6GJQsqaUBKTNV-0"/>
        <mxCell id="NjxsecSV0ff3mmEBP5zi-165" value="Equipment" style="swimlane;fontStyle=0;childLayout=stackLayout;horizontal=1;startSize=26;fillColor=#dae8fc;horizontalStack=0;resizeParent=1;resizeParentMax=0;resizeLast=0;collapsible=1;marginBottom=0;swimlaneFillColor=#ffffff;align=center;fontSize=14;strokeColor=#6c8ebf;gradientColor=#7ea6e0;" parent="WIyWlLk6GJQsqaUBKTNV-1" vertex="1">
          <mxGeometry x="210" y="574" width="160" height="78" as="geometry"/>
        </mxCell>
        <mxCell id="NjxsecSV0ff3mmEBP5zi-166" value="Id_equipment" style="text;strokeColor=none;fillColor=none;spacingLeft=4;spacingRight=4;overflow=hidden;rotatable=0;points=[[0,0.5],[1,0.5]];portConstraint=eastwest;fontSize=12;" parent="NjxsecSV0ff3mmEBP5zi-165" vertex="1">
          <mxGeometry y="26" width="160" height="26" as="geometry"/>
        </mxCell>
        <mxCell id="NjxsecSV0ff3mmEBP5zi-167" value="Name_equipment" style="text;strokeColor=none;fillColor=none;spacingLeft=4;spacingRight=4;overflow=hidden;rotatable=0;points=[[0,0.5],[1,0.5]];portConstraint=eastwest;fontSize=12;" parent="NjxsecSV0ff3mmEBP5zi-165" vertex="1">
          <mxGeometry y="52" width="160" height="26" as="geometry"/>
        </mxCell>
        <mxCell id="NjxsecSV0ff3mmEBP5zi-254" value="Type_of_contracts" style="swimlane;fontStyle=0;childLayout=stackLayout;horizontal=1;startSize=26;fillColor=#dae8fc;horizontalStack=0;resizeParent=1;resizeParentMax=0;resizeLast=0;collapsible=1;marginBottom=0;swimlaneFillColor=#ffffff;align=center;fontSize=14;strokeColor=#6c8ebf;gradientColor=#7ea6e0;" parent="WIyWlLk6GJQsqaUBKTNV-1" vertex="1">
          <mxGeometry x="400" y="80" width="160" height="80" as="geometry"/>
        </mxCell>
        <mxCell id="NjxsecSV0ff3mmEBP5zi-255" value="Id_type_of_contracts" style="text;strokeColor=none;fillColor=none;spacingLeft=4;spacingRight=4;overflow=hidden;rotatable=0;points=[[0,0.5],[1,0.5]];portConstraint=eastwest;fontSize=12;" parent="NjxsecSV0ff3mmEBP5zi-254" vertex="1">
          <mxGeometry y="26" width="160" height="26" as="geometry"/>
        </mxCell>
        <mxCell id="NjxsecSV0ff3mmEBP5zi-256" value="Name_contracts" style="text;strokeColor=none;fillColor=none;spacingLeft=4;spacingRight=4;overflow=hidden;rotatable=0;points=[[0,0.5],[1,0.5]];portConstraint=eastwest;fontSize=12;" parent="NjxsecSV0ff3mmEBP5zi-254" vertex="1">
          <mxGeometry y="52" width="160" height="28" as="geometry"/>
        </mxCell>
        <mxCell id="NjxsecSV0ff3mmEBP5zi-258" value="Teacher" style="swimlane;fontStyle=0;childLayout=stackLayout;horizontal=1;startSize=26;fillColor=#d5e8d4;horizontalStack=0;resizeParent=1;resizeParentMax=0;resizeLast=0;collapsible=1;marginBottom=0;swimlaneFillColor=#ffffff;align=center;fontSize=14;gradientColor=#97d077;strokeColor=#82b366;" parent="WIyWlLk6GJQsqaUBKTNV-1" vertex="1">
          <mxGeometry x="-200" y="-29" width="160" height="338" as="geometry"/>
        </mxCell>
        <mxCell id="NjxsecSV0ff3mmEBP5zi-259" value="Id_teacher" style="text;strokeColor=none;fillColor=none;spacingLeft=4;spacingRight=4;overflow=hidden;rotatable=0;points=[[0,0.5],[1,0.5]];portConstraint=eastwest;fontSize=12;" parent="NjxsecSV0ff3mmEBP5zi-258" vertex="1">
          <mxGeometry y="26" width="160" height="26" as="geometry"/>
        </mxCell>
        <mxCell id="NjxsecSV0ff3mmEBP5zi-260" value="Experience" style="text;strokeColor=none;fillColor=none;spacingLeft=4;spacingRight=4;overflow=hidden;rotatable=0;points=[[0,0.5],[1,0.5]];portConstraint=eastwest;fontSize=12;" parent="NjxsecSV0ff3mmEBP5zi-258" vertex="1">
          <mxGeometry y="52" width="160" height="26" as="geometry"/>
        </mxCell>
        <mxCell id="NjxsecSV0ff3mmEBP5zi-261" value="Firstname" style="text;strokeColor=none;fillColor=none;spacingLeft=4;spacingRight=4;overflow=hidden;rotatable=0;points=[[0,0.5],[1,0.5]];portConstraint=eastwest;fontSize=12;" parent="NjxsecSV0ff3mmEBP5zi-258" vertex="1">
          <mxGeometry y="78" width="160" height="26" as="geometry"/>
        </mxCell>
        <mxCell id="NjxsecSV0ff3mmEBP5zi-262" value="Lastname" style="text;strokeColor=none;fillColor=none;spacingLeft=4;spacingRight=4;overflow=hidden;rotatable=0;points=[[0,0.5],[1,0.5]];portConstraint=eastwest;fontSize=12;" parent="NjxsecSV0ff3mmEBP5zi-258" vertex="1">
          <mxGeometry y="104" width="160" height="26" as="geometry"/>
        </mxCell>
        <mxCell id="NjxsecSV0ff3mmEBP5zi-263" value="Specialty" style="text;strokeColor=none;fillColor=none;spacingLeft=4;spacingRight=4;overflow=hidden;rotatable=0;points=[[0,0.5],[1,0.5]];portConstraint=eastwest;fontSize=12;" parent="NjxsecSV0ff3mmEBP5zi-258" vertex="1">
          <mxGeometry y="130" width="160" height="26" as="geometry"/>
        </mxCell>
        <mxCell id="NjxsecSV0ff3mmEBP5zi-264" value="Frequency" style="text;strokeColor=none;fillColor=none;spacingLeft=4;spacingRight=4;overflow=hidden;rotatable=0;points=[[0,0.5],[1,0.5]];portConstraint=eastwest;fontSize=12;" parent="NjxsecSV0ff3mmEBP5zi-258" vertex="1">
          <mxGeometry y="156" width="160" height="26" as="geometry"/>
        </mxCell>
        <mxCell id="NjxsecSV0ff3mmEBP5zi-269" value="Training_center" style="text;strokeColor=none;fillColor=none;spacingLeft=4;spacingRight=4;overflow=hidden;rotatable=0;points=[[0,0.5],[1,0.5]];portConstraint=eastwest;fontSize=12;" parent="NjxsecSV0ff3mmEBP5zi-258" vertex="1">
          <mxGeometry y="182" width="160" height="26" as="geometry"/>
        </mxCell>
        <mxCell id="NjxsecSV0ff3mmEBP5zi-265" value="Type_of_contracts" style="text;strokeColor=none;fillColor=none;spacingLeft=4;spacingRight=4;overflow=hidden;rotatable=0;points=[[0,0.5],[1,0.5]];portConstraint=eastwest;fontSize=12;" parent="NjxsecSV0ff3mmEBP5zi-258" vertex="1">
          <mxGeometry y="208" width="160" height="26" as="geometry"/>
        </mxCell>
        <mxCell id="NjxsecSV0ff3mmEBP5zi-270" value="Adress" style="text;strokeColor=none;fillColor=none;spacingLeft=4;spacingRight=4;overflow=hidden;rotatable=0;points=[[0,0.5],[1,0.5]];portConstraint=eastwest;fontSize=12;" parent="NjxsecSV0ff3mmEBP5zi-258" vertex="1">
          <mxGeometry y="234" width="160" height="26" as="geometry"/>
        </mxCell>
        <mxCell id="NjxsecSV0ff3mmEBP5zi-282" value="Qualifications" style="text;strokeColor=none;fillColor=none;spacingLeft=4;spacingRight=4;overflow=hidden;rotatable=0;points=[[0,0.5],[1,0.5]];portConstraint=eastwest;fontSize=12;" parent="NjxsecSV0ff3mmEBP5zi-258" vertex="1">
          <mxGeometry y="260" width="160" height="26" as="geometry"/>
        </mxCell>
        <mxCell id="NjxsecSV0ff3mmEBP5zi-266" value="Availability" style="text;strokeColor=none;fillColor=none;spacingLeft=4;spacingRight=4;overflow=hidden;rotatable=0;points=[[0,0.5],[1,0.5]];portConstraint=eastwest;fontSize=12;" parent="NjxsecSV0ff3mmEBP5zi-258" vertex="1">
          <mxGeometry y="286" width="160" height="26" as="geometry"/>
        </mxCell>
        <mxCell id="NjxsecSV0ff3mmEBP5zi-268" value="Date_of_birth" style="text;strokeColor=none;fillColor=none;spacingLeft=4;spacingRight=4;overflow=hidden;rotatable=0;points=[[0,0.5],[1,0.5]];portConstraint=eastwest;fontSize=12;" parent="NjxsecSV0ff3mmEBP5zi-258" vertex="1">
          <mxGeometry y="312" width="160" height="26" as="geometry"/>
        </mxCell>
        <mxCell id="NjxsecSV0ff3mmEBP5zi-272" value="Room" style="swimlane;fontStyle=0;childLayout=stackLayout;horizontal=1;startSize=26;fillColor=#d5e8d4;horizontalStack=0;resizeParent=1;resizeParentMax=0;resizeLast=0;collapsible=1;marginBottom=0;swimlaneFillColor=#ffffff;align=center;fontSize=14;gradientColor=#97d077;strokeColor=#82b366;" parent="WIyWlLk6GJQsqaUBKTNV-1" vertex="1">
          <mxGeometry x="-200" y="599" width="160" height="160" as="geometry"/>
        </mxCell>
        <mxCell id="NjxsecSV0ff3mmEBP5zi-273" value="Id_room" style="text;strokeColor=none;fillColor=none;spacingLeft=4;spacingRight=4;overflow=hidden;rotatable=0;points=[[0,0.5],[1,0.5]];portConstraint=eastwest;fontSize=12;" parent="NjxsecSV0ff3mmEBP5zi-272" vertex="1">
          <mxGeometry y="26" width="160" height="26" as="geometry"/>
        </mxCell>
        <mxCell id="NjxsecSV0ff3mmEBP5zi-274" value="Heater" style="text;strokeColor=none;fillColor=none;spacingLeft=4;spacingRight=4;overflow=hidden;rotatable=0;points=[[0,0.5],[1,0.5]];portConstraint=eastwest;fontSize=12;" parent="NjxsecSV0ff3mmEBP5zi-272" vertex="1">
          <mxGeometry y="52" width="160" height="26" as="geometry"/>
        </mxCell>
        <mxCell id="NjxsecSV0ff3mmEBP5zi-275" value="Room_attribute" style="text;strokeColor=none;fillColor=none;spacingLeft=4;spacingRight=4;overflow=hidden;rotatable=0;points=[[0,0.5],[1,0.5]];portConstraint=eastwest;fontSize=12;" parent="NjxsecSV0ff3mmEBP5zi-272" vertex="1">
          <mxGeometry y="78" width="160" height="26" as="geometry"/>
        </mxCell>
        <mxCell id="NjxsecSV0ff3mmEBP5zi-276" value="Active" style="text;strokeColor=none;fillColor=none;spacingLeft=4;spacingRight=4;overflow=hidden;rotatable=0;points=[[0,0.5],[1,0.5]];portConstraint=eastwest;fontSize=12;" parent="NjxsecSV0ff3mmEBP5zi-272" vertex="1">
          <mxGeometry y="104" width="160" height="26" as="geometry"/>
        </mxCell>
        <mxCell id="NjxsecSV0ff3mmEBP5zi-277" value="Seating_places" style="text;strokeColor=none;fillColor=none;spacingLeft=4;spacingRight=4;overflow=hidden;rotatable=0;points=[[0,0.5],[1,0.5]];portConstraint=eastwest;fontSize=12;" parent="NjxsecSV0ff3mmEBP5zi-272" vertex="1">
          <mxGeometry y="130" width="160" height="30" as="geometry"/>
        </mxCell>
        <mxCell id="NjxsecSV0ff3mmEBP5zi-284" value="Availability" style="swimlane;fontStyle=0;childLayout=stackLayout;horizontal=1;startSize=26;fillColor=#dae8fc;horizontalStack=0;resizeParent=1;resizeParentMax=0;resizeLast=0;collapsible=1;marginBottom=0;swimlaneFillColor=#ffffff;align=center;fontSize=14;strokeColor=#6c8ebf;gradientColor=#7ea6e0;" parent="WIyWlLk6GJQsqaUBKTNV-1" vertex="1">
          <mxGeometry x="320" y="240" width="120" height="106" as="geometry"/>
        </mxCell>
        <mxCell id="NjxsecSV0ff3mmEBP5zi-285" value="Id_availability" style="text;strokeColor=none;fillColor=none;spacingLeft=4;spacingRight=4;overflow=hidden;rotatable=0;points=[[0,0.5],[1,0.5]];portConstraint=eastwest;fontSize=12;" parent="NjxsecSV0ff3mmEBP5zi-284" vertex="1">
          <mxGeometry y="26" width="120" height="26" as="geometry"/>
        </mxCell>
        <mxCell id="NjxsecSV0ff3mmEBP5zi-288" value="Available&#xa;" style="text;strokeColor=none;fillColor=none;spacingLeft=4;spacingRight=4;overflow=hidden;rotatable=0;points=[[0,0.5],[1,0.5]];portConstraint=eastwest;fontSize=12;" parent="NjxsecSV0ff3mmEBP5zi-284" vertex="1">
          <mxGeometry y="52" width="120" height="26" as="geometry"/>
        </mxCell>
        <mxCell id="NjxsecSV0ff3mmEBP5zi-286" value="Not_available" style="text;strokeColor=none;fillColor=none;spacingLeft=4;spacingRight=4;overflow=hidden;rotatable=0;points=[[0,0.5],[1,0.5]];portConstraint=eastwest;fontSize=12;" parent="NjxsecSV0ff3mmEBP5zi-284" vertex="1">
          <mxGeometry y="78" width="120" height="28" as="geometry"/>
        </mxCell>
        <mxCell id="NjxsecSV0ff3mmEBP5zi-289" value="Training_center_city" style="swimlane;fontStyle=0;childLayout=stackLayout;horizontal=1;startSize=26;fillColor=#dae8fc;horizontalStack=0;resizeParent=1;resizeParentMax=0;resizeLast=0;collapsible=1;marginBottom=0;swimlaneFillColor=#ffffff;align=center;fontSize=14;strokeColor=#6c8ebf;gradientColor=#7ea6e0;" parent="WIyWlLk6GJQsqaUBKTNV-1" vertex="1">
          <mxGeometry x="270" y="-64" width="140" height="78" as="geometry"/>
        </mxCell>
        <mxCell id="NjxsecSV0ff3mmEBP5zi-290" value="Id_training_center" style="text;strokeColor=none;fillColor=none;spacingLeft=4;spacingRight=4;overflow=hidden;rotatable=0;points=[[0,0.5],[1,0.5]];portConstraint=eastwest;fontSize=12;" parent="NjxsecSV0ff3mmEBP5zi-289" vertex="1">
          <mxGeometry y="26" width="140" height="26" as="geometry"/>
        </mxCell>
        <mxCell id="NjxsecSV0ff3mmEBP5zi-291" value="Type_city" style="text;strokeColor=none;fillColor=none;spacingLeft=4;spacingRight=4;overflow=hidden;rotatable=0;points=[[0,0.5],[1,0.5]];portConstraint=eastwest;fontSize=12;" parent="NjxsecSV0ff3mmEBP5zi-289" vertex="1">
          <mxGeometry y="52" width="140" height="26" as="geometry"/>
        </mxCell>
        <mxCell id="NjxsecSV0ff3mmEBP5zi-295" value="Active" style="swimlane;fontStyle=0;childLayout=stackLayout;horizontal=1;startSize=26;fillColor=#dae8fc;horizontalStack=0;resizeParent=1;resizeParentMax=0;resizeLast=0;collapsible=1;marginBottom=0;swimlaneFillColor=#ffffff;align=center;fontSize=14;strokeColor=#6c8ebf;gradientColor=#7ea6e0;" parent="WIyWlLk6GJQsqaUBKTNV-1" vertex="1">
          <mxGeometry x="170" y="770" width="160" height="108" as="geometry"/>
        </mxCell>
        <mxCell id="NjxsecSV0ff3mmEBP5zi-296" value="Id_active" style="text;strokeColor=none;fillColor=none;spacingLeft=4;spacingRight=4;overflow=hidden;rotatable=0;points=[[0,0.5],[1,0.5]];portConstraint=eastwest;fontSize=12;" parent="NjxsecSV0ff3mmEBP5zi-295" vertex="1">
          <mxGeometry y="26" width="160" height="26" as="geometry"/>
        </mxCell>
        <mxCell id="NjxsecSV0ff3mmEBP5zi-297" value="Active" style="text;strokeColor=none;fillColor=none;spacingLeft=4;spacingRight=4;overflow=hidden;rotatable=0;points=[[0,0.5],[1,0.5]];portConstraint=eastwest;fontSize=12;" parent="NjxsecSV0ff3mmEBP5zi-295" vertex="1">
          <mxGeometry y="52" width="160" height="28" as="geometry"/>
        </mxCell>
        <mxCell id="NjxsecSV0ff3mmEBP5zi-298" value="Inactive" style="text;strokeColor=none;fillColor=none;spacingLeft=4;spacingRight=4;overflow=hidden;rotatable=0;points=[[0,0.5],[1,0.5]];portConstraint=eastwest;fontSize=12;" parent="NjxsecSV0ff3mmEBP5zi-295" vertex="1">
          <mxGeometry y="80" width="160" height="28" as="geometry"/>
        </mxCell>
        <mxCell id="10PK2JrnLogm4bqKFSLu-0" value="Tainning_center_country" style="swimlane;fontStyle=0;childLayout=stackLayout;horizontal=1;startSize=26;fillColor=#dae8fc;horizontalStack=0;resizeParent=1;resizeParentMax=0;resizeLast=0;collapsible=1;marginBottom=0;swimlaneFillColor=#ffffff;align=center;fontSize=14;strokeColor=#6c8ebf;gradientColor=#7ea6e0;" vertex="1" parent="WIyWlLk6GJQsqaUBKTNV-1">
          <mxGeometry x="620" y="-93" width="160" height="78" as="geometry"/>
        </mxCell>
        <mxCell id="10PK2JrnLogm4bqKFSLu-1" value="Id_trainning_center_country" style="text;strokeColor=none;fillColor=none;spacingLeft=4;spacingRight=4;overflow=hidden;rotatable=0;points=[[0,0.5],[1,0.5]];portConstraint=eastwest;fontSize=12;" vertex="1" parent="10PK2JrnLogm4bqKFSLu-0">
          <mxGeometry y="26" width="160" height="26" as="geometry"/>
        </mxCell>
        <mxCell id="10PK2JrnLogm4bqKFSLu-5" value="Type_country" style="text;strokeColor=none;fillColor=none;spacingLeft=4;spacingRight=4;overflow=hidden;rotatable=0;points=[[0,0.5],[1,0.5]];portConstraint=eastwest;fontSize=12;" vertex="1" parent="10PK2JrnLogm4bqKFSLu-0">
          <mxGeometry y="52" width="160" height="26" as="geometry"/>
        </mxCell>
        <mxCell id="10PK2JrnLogm4bqKFSLu-10" value="Date_of_birth" style="swimlane;fontStyle=0;childLayout=stackLayout;horizontal=1;startSize=26;fillColor=#dae8fc;horizontalStack=0;resizeParent=1;resizeParentMax=0;resizeLast=0;collapsible=1;marginBottom=0;swimlaneFillColor=#ffffff;align=center;fontSize=14;gradientColor=#7ea6e0;strokeColor=#6c8ebf;" vertex="1" parent="WIyWlLk6GJQsqaUBKTNV-1">
          <mxGeometry x="320" y="400" width="130" height="78" as="geometry"/>
        </mxCell>
        <mxCell id="10PK2JrnLogm4bqKFSLu-11" value="Id_date_of_birth" style="text;strokeColor=none;fillColor=none;spacingLeft=4;spacingRight=4;overflow=hidden;rotatable=0;points=[[0,0.5],[1,0.5]];portConstraint=eastwest;fontSize=12;" vertex="1" parent="10PK2JrnLogm4bqKFSLu-10">
          <mxGeometry y="26" width="130" height="26" as="geometry"/>
        </mxCell>
        <mxCell id="10PK2JrnLogm4bqKFSLu-12" value="Type_date" style="text;strokeColor=none;fillColor=none;spacingLeft=4;spacingRight=4;overflow=hidden;rotatable=0;points=[[0,0.5],[1,0.5]];portConstraint=eastwest;fontSize=12;" vertex="1" parent="10PK2JrnLogm4bqKFSLu-10">
          <mxGeometry y="52" width="130" height="26" as="geometry"/>
        </mxCell>
        <mxCell id="10PK2JrnLogm4bqKFSLu-14" value="" style="endArrow=none;html=1;rounded=0;exitX=0.981;exitY=1.038;exitDx=0;exitDy=0;exitPerimeter=0;entryX=0.006;entryY=0.154;entryDx=0;entryDy=0;entryPerimeter=0;" edge="1" parent="WIyWlLk6GJQsqaUBKTNV-1" source="NjxsecSV0ff3mmEBP5zi-268" target="10PK2JrnLogm4bqKFSLu-10">
          <mxGeometry relative="1" as="geometry">
            <mxPoint x="100" y="530" as="sourcePoint"/>
            <mxPoint x="260" y="530" as="targetPoint"/>
          </mxGeometry>
        </mxCell>
        <mxCell id="10PK2JrnLogm4bqKFSLu-15" value="" style="endArrow=none;html=1;rounded=0;entryX=0.013;entryY=0.123;entryDx=0;entryDy=0;entryPerimeter=0;exitX=1.019;exitY=0.846;exitDx=0;exitDy=0;exitPerimeter=0;" edge="1" parent="WIyWlLk6GJQsqaUBKTNV-1" source="NjxsecSV0ff3mmEBP5zi-266" target="NjxsecSV0ff3mmEBP5zi-284">
          <mxGeometry relative="1" as="geometry">
            <mxPoint x="90" y="450" as="sourcePoint"/>
            <mxPoint x="250" y="450" as="targetPoint"/>
          </mxGeometry>
        </mxCell>
        <mxCell id="10PK2JrnLogm4bqKFSLu-16" value="" style="endArrow=none;html=1;rounded=0;entryX=0.013;entryY=0.138;entryDx=0;entryDy=0;entryPerimeter=0;exitX=1.025;exitY=0.885;exitDx=0;exitDy=0;exitPerimeter=0;" edge="1" parent="WIyWlLk6GJQsqaUBKTNV-1" source="NjxsecSV0ff3mmEBP5zi-265" target="NjxsecSV0ff3mmEBP5zi-254">
          <mxGeometry relative="1" as="geometry">
            <mxPoint x="230" y="261" as="sourcePoint"/>
            <mxPoint x="630" y="410" as="targetPoint"/>
          </mxGeometry>
        </mxCell>
        <mxCell id="10PK2JrnLogm4bqKFSLu-17" value="" style="endArrow=none;html=1;rounded=0;entryX=0.013;entryY=0.16;entryDx=0;entryDy=0;entryPerimeter=0;exitX=1.025;exitY=0.769;exitDx=0;exitDy=0;exitPerimeter=0;" edge="1" parent="WIyWlLk6GJQsqaUBKTNV-1" source="NjxsecSV0ff3mmEBP5zi-269" target="NjxsecSV0ff3mmEBP5zi-289">
          <mxGeometry relative="1" as="geometry">
            <mxPoint x="210" y="230" as="sourcePoint"/>
            <mxPoint x="240" y="460" as="targetPoint"/>
          </mxGeometry>
        </mxCell>
        <mxCell id="10PK2JrnLogm4bqKFSLu-18" value="" style="endArrow=none;html=1;rounded=0;entryX=-0.015;entryY=0.179;entryDx=0;entryDy=0;entryPerimeter=0;" edge="1" parent="WIyWlLk6GJQsqaUBKTNV-1" source="NjxsecSV0ff3mmEBP5zi-272" target="NjxsecSV0ff3mmEBP5zi-165">
          <mxGeometry relative="1" as="geometry">
            <mxPoint x="90" y="650" as="sourcePoint"/>
            <mxPoint x="250" y="650" as="targetPoint"/>
          </mxGeometry>
        </mxCell>
        <mxCell id="10PK2JrnLogm4bqKFSLu-19" value="" style="endArrow=none;html=1;rounded=0;entryX=-0.019;entryY=0.102;entryDx=0;entryDy=0;entryPerimeter=0;" edge="1" parent="WIyWlLk6GJQsqaUBKTNV-1" source="NjxsecSV0ff3mmEBP5zi-272" target="NjxsecSV0ff3mmEBP5zi-295">
          <mxGeometry relative="1" as="geometry">
            <mxPoint x="10" y="760" as="sourcePoint"/>
            <mxPoint x="360" y="890" as="targetPoint"/>
            <Array as="points"/>
          </mxGeometry>
        </mxCell>
        <mxCell id="10PK2JrnLogm4bqKFSLu-21" value="(1,n)" style="text;html=1;strokeColor=none;fillColor=none;align=center;verticalAlign=middle;whiteSpace=wrap;rounded=0;" vertex="1" parent="WIyWlLk6GJQsqaUBKTNV-1">
          <mxGeometry x="-20" y="100" width="40" height="30" as="geometry"/>
        </mxCell>
        <mxCell id="10PK2JrnLogm4bqKFSLu-23" value="(1,n)" style="text;html=1;strokeColor=none;fillColor=none;align=center;verticalAlign=middle;whiteSpace=wrap;rounded=0;" vertex="1" parent="WIyWlLk6GJQsqaUBKTNV-1">
          <mxGeometry x="200" y="-60" width="50" height="31" as="geometry"/>
        </mxCell>
        <mxCell id="10PK2JrnLogm4bqKFSLu-35" value="(1,1)" style="text;html=1;strokeColor=none;fillColor=none;align=center;verticalAlign=middle;whiteSpace=wrap;rounded=0;" vertex="1" parent="WIyWlLk6GJQsqaUBKTNV-1">
          <mxGeometry x="10" y="150" width="50" height="30" as="geometry"/>
        </mxCell>
        <mxCell id="10PK2JrnLogm4bqKFSLu-36" value="(1,n)" style="text;html=1;strokeColor=none;fillColor=none;align=center;verticalAlign=middle;whiteSpace=wrap;rounded=0;" vertex="1" parent="WIyWlLk6GJQsqaUBKTNV-1">
          <mxGeometry x="330" y="70" width="40" height="30" as="geometry"/>
        </mxCell>
        <mxCell id="10PK2JrnLogm4bqKFSLu-37" value="" style="endArrow=none;html=1;rounded=0;exitX=1.023;exitY=0.179;exitDx=0;exitDy=0;exitPerimeter=0;entryX=0;entryY=0.25;entryDx=0;entryDy=0;" edge="1" parent="WIyWlLk6GJQsqaUBKTNV-1" source="NjxsecSV0ff3mmEBP5zi-289" target="10PK2JrnLogm4bqKFSLu-0">
          <mxGeometry relative="1" as="geometry">
            <mxPoint x="390" y="-90" as="sourcePoint"/>
            <mxPoint x="440" y="-110" as="targetPoint"/>
          </mxGeometry>
        </mxCell>
        <mxCell id="10PK2JrnLogm4bqKFSLu-41" value="(1,1)" style="text;html=1;strokeColor=none;fillColor=none;align=center;verticalAlign=middle;whiteSpace=wrap;rounded=0;" vertex="1" parent="WIyWlLk6GJQsqaUBKTNV-1">
          <mxGeometry x="-40" y="680" width="50" height="30" as="geometry"/>
        </mxCell>
        <mxCell id="10PK2JrnLogm4bqKFSLu-42" value="(1,1)" style="text;html=1;strokeColor=none;fillColor=none;align=center;verticalAlign=middle;whiteSpace=wrap;rounded=0;" vertex="1" parent="WIyWlLk6GJQsqaUBKTNV-1">
          <mxGeometry x="120" y="729" width="50" height="30" as="geometry"/>
        </mxCell>
        <mxCell id="10PK2JrnLogm4bqKFSLu-43" value="(1,n)" style="text;html=1;strokeColor=none;fillColor=none;align=center;verticalAlign=middle;whiteSpace=wrap;rounded=0;" vertex="1" parent="WIyWlLk6GJQsqaUBKTNV-1">
          <mxGeometry x="-30" y="599" width="60" height="39" as="geometry"/>
        </mxCell>
        <mxCell id="10PK2JrnLogm4bqKFSLu-44" value="(n,m)" style="text;html=1;strokeColor=none;fillColor=none;align=center;verticalAlign=middle;whiteSpace=wrap;rounded=0;" vertex="1" parent="WIyWlLk6GJQsqaUBKTNV-1">
          <mxGeometry x="150" y="550" width="50" height="34" as="geometry"/>
        </mxCell>
        <mxCell id="10PK2JrnLogm4bqKFSLu-45" value="(1,1)" style="text;html=1;strokeColor=none;fillColor=none;align=center;verticalAlign=middle;whiteSpace=wrap;rounded=0;" vertex="1" parent="WIyWlLk6GJQsqaUBKTNV-1">
          <mxGeometry x="-50" y="320" width="50" height="40" as="geometry"/>
        </mxCell>
        <mxCell id="10PK2JrnLogm4bqKFSLu-46" value="(1,n)" style="text;html=1;strokeColor=none;fillColor=none;align=center;verticalAlign=middle;whiteSpace=wrap;rounded=0;" vertex="1" parent="WIyWlLk6GJQsqaUBKTNV-1">
          <mxGeometry x="240" y="410" width="60" height="30" as="geometry"/>
        </mxCell>
        <mxCell id="10PK2JrnLogm4bqKFSLu-47" value="(1,1)" style="text;html=1;strokeColor=none;fillColor=none;align=center;verticalAlign=middle;whiteSpace=wrap;rounded=0;" vertex="1" parent="WIyWlLk6GJQsqaUBKTNV-1">
          <mxGeometry x="-20" y="240" width="50" height="30" as="geometry"/>
        </mxCell>
        <mxCell id="10PK2JrnLogm4bqKFSLu-48" value="(1,n)" style="text;html=1;strokeColor=none;fillColor=none;align=center;verticalAlign=middle;whiteSpace=wrap;rounded=0;" vertex="1" parent="WIyWlLk6GJQsqaUBKTNV-1">
          <mxGeometry x="250" y="220" width="60" height="30" as="geometry"/>
        </mxCell>
        <mxCell id="10PK2JrnLogm4bqKFSLu-49" value="(1,1)" style="text;html=1;strokeColor=none;fillColor=none;align=center;verticalAlign=middle;whiteSpace=wrap;rounded=0;" vertex="1" parent="WIyWlLk6GJQsqaUBKTNV-1">
          <mxGeometry x="420" y="-90" width="40" height="26" as="geometry"/>
        </mxCell>
        <mxCell id="10PK2JrnLogm4bqKFSLu-50" value="(1,n)" style="text;html=1;strokeColor=none;fillColor=none;align=center;verticalAlign=middle;whiteSpace=wrap;rounded=0;" vertex="1" parent="WIyWlLk6GJQsqaUBKTNV-1">
          <mxGeometry x="570" y="-110" width="50" height="26" as="geometry"/>
        </mxCell>
        <mxCell id="10PK2JrnLogm4bqKFSLu-51" value="" style="endArrow=none;html=1;rounded=0;exitX=0.494;exitY=1.038;exitDx=0;exitDy=0;exitPerimeter=0;entryX=0.5;entryY=0;entryDx=0;entryDy=0;" edge="1" parent="WIyWlLk6GJQsqaUBKTNV-1" source="NjxsecSV0ff3mmEBP5zi-268" target="NjxsecSV0ff3mmEBP5zi-272">
          <mxGeometry relative="1" as="geometry">
            <mxPoint x="-190" y="419.5" as="sourcePoint"/>
            <mxPoint x="-30" y="419.5" as="targetPoint"/>
          </mxGeometry>
        </mxCell>
        <mxCell id="10PK2JrnLogm4bqKFSLu-53" value="(1,n)" style="text;html=1;strokeColor=none;fillColor=none;align=center;verticalAlign=middle;whiteSpace=wrap;rounded=0;" vertex="1" parent="WIyWlLk6GJQsqaUBKTNV-1">
          <mxGeometry x="-170" y="320" width="40" height="20" as="geometry"/>
        </mxCell>
        <mxCell id="10PK2JrnLogm4bqKFSLu-54" value="(1,1)" style="text;html=1;strokeColor=none;fillColor=none;align=center;verticalAlign=middle;whiteSpace=wrap;rounded=0;" vertex="1" parent="WIyWlLk6GJQsqaUBKTNV-1">
          <mxGeometry x="-180" y="550" width="50" height="30" as="geometry"/>
        </mxCell>
        <mxCell id="10PK2JrnLogm4bqKFSLu-55" value="Floor" style="swimlane;fontStyle=0;childLayout=stackLayout;horizontal=1;startSize=26;fillColor=#d5e8d4;horizontalStack=0;resizeParent=1;resizeParentMax=0;resizeLast=0;collapsible=1;marginBottom=0;swimlaneFillColor=#ffffff;align=center;fontSize=14;gradientColor=#97d077;strokeColor=#82b366;" vertex="1" parent="WIyWlLk6GJQsqaUBKTNV-1">
          <mxGeometry x="-200" y="940" width="160" height="78" as="geometry"/>
        </mxCell>
        <mxCell id="10PK2JrnLogm4bqKFSLu-56" value="Id_floor" style="text;strokeColor=none;fillColor=none;spacingLeft=4;spacingRight=4;overflow=hidden;rotatable=0;points=[[0,0.5],[1,0.5]];portConstraint=eastwest;fontSize=12;" vertex="1" parent="10PK2JrnLogm4bqKFSLu-55">
          <mxGeometry y="26" width="160" height="26" as="geometry"/>
        </mxCell>
        <mxCell id="10PK2JrnLogm4bqKFSLu-57" value="Type_number" style="text;strokeColor=none;fillColor=none;spacingLeft=4;spacingRight=4;overflow=hidden;rotatable=0;points=[[0,0.5],[1,0.5]];portConstraint=eastwest;fontSize=12;" vertex="1" parent="10PK2JrnLogm4bqKFSLu-55">
          <mxGeometry y="52" width="160" height="26" as="geometry"/>
        </mxCell>
        <mxCell id="10PK2JrnLogm4bqKFSLu-59" value="" style="endArrow=none;html=1;rounded=0;entryX=0.5;entryY=0;entryDx=0;entryDy=0;" edge="1" parent="WIyWlLk6GJQsqaUBKTNV-1" source="NjxsecSV0ff3mmEBP5zi-272" target="10PK2JrnLogm4bqKFSLu-55">
          <mxGeometry relative="1" as="geometry">
            <mxPoint x="-130" y="790" as="sourcePoint"/>
            <mxPoint x="-50" y="840" as="targetPoint"/>
          </mxGeometry>
        </mxCell>
        <mxCell id="10PK2JrnLogm4bqKFSLu-60" value="(1,1)" style="text;html=1;strokeColor=none;fillColor=none;align=center;verticalAlign=middle;whiteSpace=wrap;rounded=0;" vertex="1" parent="WIyWlLk6GJQsqaUBKTNV-1">
          <mxGeometry x="-180" y="770" width="50" height="30" as="geometry"/>
        </mxCell>
        <mxCell id="10PK2JrnLogm4bqKFSLu-61" value="(1,n)" style="text;html=1;strokeColor=none;fillColor=none;align=center;verticalAlign=middle;whiteSpace=wrap;rounded=0;" vertex="1" parent="WIyWlLk6GJQsqaUBKTNV-1">
          <mxGeometry x="-170" y="900" width="50" height="30" as="geometry"/>
        </mxCell>
        <mxCell id="10PK2JrnLogm4bqKFSLu-67" value="Have" style="rounded=1;whiteSpace=wrap;html=1;" vertex="1" parent="WIyWlLk6GJQsqaUBKTNV-1">
          <mxGeometry x="-190" y="848" width="60" height="30" as="geometry"/>
        </mxCell>
        <mxCell id="10PK2JrnLogm4bqKFSLu-69" value="Have" style="rounded=1;whiteSpace=wrap;html=1;" vertex="1" parent="WIyWlLk6GJQsqaUBKTNV-1">
          <mxGeometry x="50" y="580" width="60" height="30" as="geometry"/>
        </mxCell>
        <mxCell id="10PK2JrnLogm4bqKFSLu-70" value="Have" style="rounded=1;whiteSpace=wrap;html=1;" vertex="1" parent="WIyWlLk6GJQsqaUBKTNV-1">
          <mxGeometry x="40" y="699" width="60" height="30" as="geometry"/>
        </mxCell>
        <mxCell id="10PK2JrnLogm4bqKFSLu-71" value="Have" style="rounded=1;whiteSpace=wrap;html=1;" vertex="1" parent="WIyWlLk6GJQsqaUBKTNV-1">
          <mxGeometry x="80" y="370" width="60" height="30" as="geometry"/>
        </mxCell>
        <mxCell id="10PK2JrnLogm4bqKFSLu-72" value="Have" style="rounded=1;whiteSpace=wrap;html=1;" vertex="1" parent="WIyWlLk6GJQsqaUBKTNV-1">
          <mxGeometry x="110" y="230" width="60" height="30" as="geometry"/>
        </mxCell>
        <mxCell id="10PK2JrnLogm4bqKFSLu-73" value="Have" style="rounded=1;whiteSpace=wrap;html=1;" vertex="1" parent="WIyWlLk6GJQsqaUBKTNV-1">
          <mxGeometry x="140" y="110" width="60" height="30" as="geometry"/>
        </mxCell>
        <mxCell id="10PK2JrnLogm4bqKFSLu-74" value="Have" style="rounded=1;whiteSpace=wrap;html=1;" vertex="1" parent="WIyWlLk6GJQsqaUBKTNV-1">
          <mxGeometry x="60" y="20" width="60" height="30" as="geometry"/>
        </mxCell>
        <mxCell id="10PK2JrnLogm4bqKFSLu-75" value="Have" style="rounded=1;whiteSpace=wrap;html=1;" vertex="1" parent="WIyWlLk6GJQsqaUBKTNV-1">
          <mxGeometry x="480" y="-104" width="60" height="30" as="geometry"/>
        </mxCell>
        <mxCell id="10PK2JrnLogm4bqKFSLu-76" value="Have" style="rounded=1;whiteSpace=wrap;html=1;" vertex="1" parent="WIyWlLk6GJQsqaUBKTNV-1">
          <mxGeometry x="-190" y="420" width="60" height="30" as="geometry"/>
        </mxCell>
      </root>
    </mxGraphModel>
  </diagram>
</mxfile>
